<svg xmlns="http://www.w3.org/2000/svg" xmlns:xlink="http://www.w3.org/1999/xlink" width="49" zoomAndPan="magnify" viewBox="0 0 36.75 32.999998" height="44" preserveAspectRatio="xMidYMid meet" version="1.0"><defs><clipPath id="48e20f5c82"><path d="M 17 10 L 24 10 L 24 21 L 17 21 Z M 17 10 " clip-rule="nonzero"/></clipPath><clipPath id="6762b3767d"><path d="M 5.613281 4.738281 L 18.984375 0.09375 L 26.074219 20.5 L 12.703125 25.144531 Z M 5.613281 4.738281 " clip-rule="nonzero"/></clipPath><clipPath id="1fa4f11b04"><path d="M 5.613281 4.738281 L 18.984375 0.09375 L 26.074219 20.5 L 12.703125 25.144531 Z M 5.613281 4.738281 " clip-rule="nonzero"/></clipPath><clipPath id="03a3e0a3ec"><path d="M 5.613281 4.738281 L 18.984375 0.09375 L 26.074219 20.5 L 12.703125 25.144531 Z M 5.613281 4.738281 " clip-rule="nonzero"/></clipPath><clipPath id="21db042292"><path d="M 13 1 L 25 1 L 25 23 L 13 23 Z M 13 1 " clip-rule="nonzero"/></clipPath><clipPath id="5d61f28c69"><path d="M 5.613281 4.738281 L 18.984375 0.09375 L 26.074219 20.5 L 12.703125 25.144531 Z M 5.613281 4.738281 " clip-rule="nonzero"/></clipPath><clipPath id="5c8d2dcf91"><path d="M 5.613281 4.738281 L 18.984375 0.09375 L 26.074219 20.5 L 12.703125 25.144531 Z M 5.613281 4.738281 " clip-rule="nonzero"/></clipPath><clipPath id="ad3cd3fd8e"><path d="M 5.613281 4.738281 L 18.984375 0.09375 L 26.074219 20.5 L 12.703125 25.144531 Z M 5.613281 4.738281 " clip-rule="nonzero"/></clipPath><clipPath id="61ca8ead57"><path d="M 7 6 L 14 6 L 14 13 L 7 13 Z M 7 6 " clip-rule="nonzero"/></clipPath><clipPath id="f5b231c339"><path d="M 5.613281 4.738281 L 18.984375 0.09375 L 26.074219 20.5 L 12.703125 25.144531 Z M 5.613281 4.738281 " clip-rule="nonzero"/></clipPath><clipPath id="334dc95d7d"><path d="M 5.613281 4.738281 L 18.984375 0.09375 L 26.074219 20.5 L 12.703125 25.144531 Z M 5.613281 4.738281 " clip-rule="nonzero"/></clipPath><clipPath id="9cec68f363"><path d="M 5.613281 4.738281 L 18.984375 0.09375 L 26.074219 20.5 L 12.703125 25.144531 Z M 5.613281 4.738281 " clip-rule="nonzero"/></clipPath><clipPath id="c80623945e"><path d="M 1 1 L 33 1 L 33 29 L 1 29 Z M 1 1 " clip-rule="nonzero"/></clipPath><clipPath id="a31ecbb1bd"><path d="M 6.714844 32.558594 L 0 9.6875 L 30.019531 0.875 L 36.734375 23.746094 Z M 6.714844 32.558594 " clip-rule="nonzero"/></clipPath><clipPath id="c2dd2ecc07"><path d="M 6.714844 32.558594 L 0 9.6875 L 30.019531 0.875 L 36.734375 23.746094 Z M 6.714844 32.558594 " clip-rule="nonzero"/></clipPath><clipPath id="ac0248e310"><path d="M 6.714844 32.558594 L 0 9.6875 L 30.019531 0.875 L 36.734375 23.746094 Z M 6.714844 32.558594 " clip-rule="nonzero"/></clipPath></defs><g clip-path="url(#48e20f5c82)"><g clip-path="url(#6762b3767d)"><g clip-path="url(#1fa4f11b04)"><g clip-path="url(#03a3e0a3ec)"><path fill="#3ba6e3" d="M 20.84375 14.761719 L 20.273438 14.667969 L 18.933594 10.8125 L 17.246094 11.398438 L 18.566406 15.191406 L 18.125 15.625 C 17.28125 16.453125 16.980469 17.699219 17.363281 18.796875 C 17.914062 20.386719 19.683594 21.21875 21.304688 20.65625 C 22.925781 20.09375 23.796875 18.34375 23.242188 16.753906 C 22.878906 15.707031 21.960938 14.941406 20.84375 14.761719 " fill-opacity="1" fill-rule="nonzero"/></g></g></g></g><g clip-path="url(#21db042292)"><g clip-path="url(#5d61f28c69)"><g clip-path="url(#5c8d2dcf91)"><g clip-path="url(#ad3cd3fd8e)"><path fill="#0b1d3f" d="M 21.476562 21.148438 C 19.578125 21.808594 17.507812 20.832031 16.859375 18.972656 C 16.414062 17.6875 16.765625 16.230469 17.753906 15.257812 C 17.878906 15.136719 17.921875 14.957031 17.863281 14.792969 L 14.175781 4.179688 C 13.925781 3.453125 14.320312 2.652344 15.0625 2.394531 C 15.804688 2.136719 16.613281 2.519531 16.867188 3.246094 L 20.585938 13.953125 C 20.640625 14.109375 20.773438 14.21875 20.9375 14.246094 C 22.242188 14.457031 23.320312 15.351562 23.746094 16.582031 C 24.390625 18.441406 23.375 20.488281 21.476562 21.148438 Z M 21.363281 13.414062 L 21.019531 12.421875 L 21.839844 12.136719 C 22.078125 12.054688 22.207031 11.800781 22.125 11.566406 C 22.042969 11.335938 21.785156 11.210938 21.546875 11.296875 L 20.726562 11.582031 L 20.464844 10.832031 L 21.289062 10.546875 C 21.523438 10.464844 21.652344 10.207031 21.570312 9.976562 C 21.492188 9.742188 21.230469 9.621094 20.996094 9.703125 L 20.171875 9.988281 L 19.914062 9.238281 L 20.734375 8.953125 C 20.972656 8.871094 21.097656 8.617188 21.019531 8.382812 C 20.9375 8.148438 20.679688 8.027344 20.441406 8.109375 L 19.621094 8.398438 L 19.359375 7.648438 L 20.179688 7.363281 C 20.417969 7.277344 20.546875 7.023438 20.464844 6.789062 C 20.382812 6.558594 20.125 6.4375 19.886719 6.519531 L 19.066406 6.804688 L 18.804688 6.054688 L 19.628906 5.769531 C 19.867188 5.6875 19.992188 5.429688 19.910156 5.199219 C 19.832031 4.964844 19.574219 4.84375 19.335938 4.925781 L 18.511719 5.210938 L 18.253906 4.460938 L 19.074219 4.175781 C 19.3125 4.09375 19.4375 3.839844 19.359375 3.605469 C 19.277344 3.375 19.019531 3.25 18.78125 3.335938 L 17.960938 3.621094 L 17.726562 2.945312 C 17.3125 1.753906 15.988281 1.128906 14.769531 1.554688 C 13.554688 1.976562 12.902344 3.289062 13.316406 4.480469 L 16.914062 14.839844 C 15.832031 16.046875 15.472656 17.753906 16 19.269531 C 16.808594 21.59375 19.394531 22.816406 21.769531 21.992188 C 24.140625 21.167969 25.414062 18.605469 24.605469 16.28125 C 24.101562 14.832031 22.875 13.753906 21.363281 13.414062 " fill-opacity="1" fill-rule="nonzero"/></g></g></g></g><g clip-path="url(#61ca8ead57)"><g clip-path="url(#f5b231c339)"><g clip-path="url(#334dc95d7d)"><g clip-path="url(#9cec68f363)"><path fill="#3ba6e3" d="M 13.011719 8.421875 L 12.304688 8.667969 C 12.316406 8.554688 12.261719 8.445312 12.15625 8.386719 C 12.011719 8.304688 11.828125 8.355469 11.742188 8.5 C 11.726562 8.527344 11.726562 8.53125 11.601562 8.910156 L 11.21875 9.042969 L 11.71875 8.101562 L 12.078125 8.046875 C 12.097656 8.046875 12.117188 8.039062 12.136719 8.035156 C 12.269531 7.988281 12.359375 7.851562 12.339844 7.710938 C 12.320312 7.566406 12.203125 7.464844 12.0625 7.457031 L 12.085938 7.40625 C 12.164062 7.261719 12.109375 7.082031 11.960938 7.007812 C 11.8125 6.929688 11.628906 6.988281 11.550781 7.136719 L 11.53125 7.171875 C 11.453125 7.078125 11.324219 7.039062 11.199219 7.082031 C 11.039062 7.136719 10.957031 7.304688 11.007812 7.460938 C 11.015625 7.476562 11.015625 7.480469 11.1875 7.824219 L 10.609375 8.910156 L 10.417969 8.355469 L 10.628906 8.0625 C 10.726562 7.929688 10.695312 7.742188 10.5625 7.648438 C 10.441406 7.566406 10.285156 7.582031 10.179688 7.675781 L 9.933594 6.96875 C 9.882812 6.816406 9.710938 6.734375 9.550781 6.789062 C 9.394531 6.84375 9.308594 7.015625 9.363281 7.167969 L 9.601562 7.859375 C 9.488281 7.855469 9.378906 7.90625 9.316406 8.007812 C 9.230469 8.152344 9.277344 8.335938 9.421875 8.417969 C 9.449219 8.429688 9.453125 8.433594 9.839844 8.550781 L 10 9.007812 L 8.914062 8.472656 L 8.863281 8.117188 C 8.839844 7.957031 8.6875 7.84375 8.519531 7.871094 C 8.375 7.894531 8.269531 8.011719 8.261719 8.148438 L 8.210938 8.125 C 8.0625 8.050781 7.878906 8.109375 7.804688 8.257812 C 7.726562 8.40625 7.785156 8.585938 7.933594 8.65625 L 7.96875 8.675781 C 7.890625 8.742188 7.84375 8.847656 7.863281 8.957031 C 7.890625 9.117188 8.046875 9.226562 8.210938 9.199219 C 8.222656 9.195312 8.230469 9.195312 8.242188 9.191406 C 8.28125 9.175781 8.355469 9.140625 8.632812 9.003906 L 9.75 9.554688 L 9.398438 9.675781 C 9.050781 9.445312 9.042969 9.445312 9 9.433594 C 8.839844 9.386719 8.671875 9.480469 8.625 9.640625 C 8.59375 9.742188 8.625 9.847656 8.691406 9.921875 L 7.847656 10.214844 C 7.6875 10.269531 7.605469 10.441406 7.660156 10.597656 C 7.710938 10.75 7.882812 10.832031 8.042969 10.777344 L 8.902344 10.480469 C 8.890625 10.617188 8.976562 10.746094 9.117188 10.785156 C 9.179688 10.804688 9.242188 10.800781 9.300781 10.78125 C 9.390625 10.75 9.464844 10.675781 9.496094 10.582031 L 9.597656 10.238281 L 9.972656 10.105469 L 9.445312 11.101562 C 9.050781 11.167969 9.046875 11.167969 9.023438 11.175781 C 8.867188 11.230469 8.78125 11.402344 8.835938 11.558594 C 8.875 11.671875 8.980469 11.746094 9.101562 11.753906 L 9.011719 11.917969 C 8.933594 12.066406 8.992188 12.246094 9.140625 12.320312 C 9.214844 12.359375 9.300781 12.363281 9.378906 12.335938 C 9.449219 12.3125 9.511719 12.261719 9.546875 12.191406 L 9.644531 12.011719 C 9.722656 12.105469 9.855469 12.144531 9.976562 12.101562 C 9.988281 12.097656 10.003906 12.09375 10.015625 12.085938 C 10.164062 12.011719 10.222656 11.832031 10.148438 11.683594 L 9.984375 11.367188 L 10.488281 10.417969 L 10.59375 10.710938 C 10.347656 11.066406 10.34375 11.070312 10.332031 11.125 C 10.296875 11.285156 10.402344 11.441406 10.566406 11.476562 C 10.621094 11.488281 10.675781 11.480469 10.726562 11.464844 C 10.765625 11.449219 10.800781 11.429688 10.832031 11.398438 L 11.121094 12.230469 C 11.171875 12.382812 11.347656 12.464844 11.503906 12.410156 C 11.664062 12.355469 11.746094 12.183594 11.691406 12.03125 L 11.402344 11.1875 C 11.539062 11.199219 11.671875 11.109375 11.714844 10.972656 C 11.761719 10.8125 11.671875 10.648438 11.511719 10.605469 L 11.164062 10.503906 L 11.058594 10.203125 L 11.953125 10.644531 C 12.019531 11.03125 12.019531 11.035156 12.027344 11.058594 C 12.082031 11.210938 12.253906 11.292969 12.410156 11.238281 C 12.53125 11.195312 12.609375 11.089844 12.617188 10.972656 L 12.785156 11.054688 C 12.859375 11.09375 12.945312 11.097656 13.019531 11.070312 C 13.089844 11.046875 13.152344 10.992188 13.191406 10.921875 C 13.269531 10.773438 13.210938 10.597656 13.0625 10.523438 L 12.878906 10.433594 C 12.988281 10.34375 13.023438 10.191406 12.957031 10.066406 C 12.882812 9.917969 12.699219 9.863281 12.550781 9.941406 L 12.226562 10.109375 L 11.292969 9.648438 L 11.792969 9.476562 L 12.085938 9.679688 C 12.167969 9.738281 12.273438 9.75 12.363281 9.71875 C 12.417969 9.695312 12.472656 9.660156 12.507812 9.605469 C 12.59375 9.488281 12.582031 9.335938 12.488281 9.234375 L 13.207031 8.984375 C 13.367188 8.929688 13.449219 8.757812 13.398438 8.601562 C 13.34375 8.449219 13.171875 8.367188 13.011719 8.421875 " fill-opacity="1" fill-rule="nonzero"/></g></g></g></g><g clip-path="url(#c80623945e)"><g clip-path="url(#a31ecbb1bd)"><g clip-path="url(#c2dd2ecc07)"><g clip-path="url(#ac0248e310)"><path fill="#010275" d="M 30.40625 6.445312 C 32.609375 13.953125 28.277344 21.890625 20.621094 24.136719 C 13.054688 26.324219 5.082031 22.109375 2.859375 14.535156 C 2.308594 12.65625 2.1875 10.871094 2.304688 9.015625 C 1.546875 11.824219 1.488281 14.753906 2.355469 17.703125 C 4.777344 25.949219 13.457031 30.574219 21.726562 28.148438 C 30.058594 25.699219 34.765625 17.035156 32.375 8.890625 C 31.507812 5.941406 29.820312 3.449219 27.71875 1.554688 C 29.035156 3.027344 29.894531 4.703125 30.40625 6.445312 Z M 30.40625 6.445312 " fill-opacity="1" fill-rule="nonzero"/></g></g></g></g></svg>